<?xml version="1.0" standalone="no"?>
<!DOCTYPE svg PUBLIC "-//W3C//DTD SVG 20010904//EN"
 "http://www.w3.org/TR/2001/REC-SVG-20010904/DTD/svg10.dtd">
<svg version="1.0" xmlns="http://www.w3.org/2000/svg"
 width="200.000000pt" height="200.000000pt" viewBox="0 0 200.000000 200.000000"
 preserveAspectRatio="xMidYMid meet">
<metadata>
Created by potrace 1.11, written by Peter Selinger 2001-2013
</metadata>
<g transform="translate(0.000000,200.000000) scale(0.100000,-0.100000)"
fill="#000000" stroke="none">
<path d="M104 1941 c-17 -10 -40 -31 -52 -46 l-22 -28 0 -864 c0 -948 -3 -893
60 -947 l32 -26 864 0 c949 0 894 -3 948 60 l26 32 0 864 c0 949 3 894 -60
948 l-32 26 -866 0 c-831 0 -868 -1 -898 -19z m698 -553 c314 -144 313 -623
-2 -772 -61 -29 -72 -31 -180 -31 -95 1 -125 5 -172 24 -84 33 -159 106 -205
199 -38 75 -38 77 -38 196 0 110 2 126 27 179 32 68 117 161 173 190 78 40
116 47 230 44 94 -3 119 -7 167 -29z m978 -108 c0 -97 -3 -120 -14 -120 -9 0
-17 15 -21 38 -17 103 -80 144 -232 150 l-103 4 0 -162 0 -163 46 6 c26 2 58
13 73 24 32 24 71 97 71 135 0 18 5 28 15 28 13 0 15 -31 15 -215 0 -184 -2
-215 -15 -215 -9 0 -15 9 -15 24 0 91 -75 166 -167 166 -23 0 -23 -1 -23 -155
0 -152 1 -156 25 -180 15 -16 36 -25 55 -25 16 0 30 -4 30 -10 0 -6 -75 -10
-205 -10 -130 0 -205 4 -205 10 0 6 14 10 30 10 19 0 40 9 55 25 l25 24 0 335
0 335 -26 20 c-15 12 -40 21 -55 21 -16 0 -29 5 -29 10 0 6 118 10 335 10
l335 0 0 -120z"/>
<path d="M543 1360 c-88 -39 -133 -163 -133 -362 0 -241 65 -366 193 -375 82
-7 134 25 174 107 53 105 67 271 38 434 -18 101 -54 163 -115 194 -54 27 -101
28 -157 2z"/>
</g>
</svg>
